<mxfile host="65bd71144e">
    <diagram id="XIP6_qOdMlYOlldbtScc" name="Страница 1">
        <mxGraphModel dx="1002" dy="571" grid="0" gridSize="10" guides="1" tooltips="1" connect="1" arrows="1" fold="1" page="1" pageScale="1" pageWidth="827" pageHeight="1169" math="0" shadow="0">
            <root>
                <mxCell id="0"/>
                <mxCell id="1" parent="0"/>
                <mxCell id="13" style="edgeStyle=elbowEdgeStyle;html=1;exitX=0.995;exitY=0.685;exitDx=0;exitDy=0;entryX=0;entryY=0.5;entryDx=0;entryDy=0;fontFamily=Lucida Console;fontSize=18;exitPerimeter=0;strokeWidth=2;" parent="1" source="2" target="9" edge="1">
                    <mxGeometry relative="1" as="geometry">
                        <Array as="points">
                            <mxPoint x="148" y="290"/>
                        </Array>
                    </mxGeometry>
                </mxCell>
                <mxCell id="2" value="&lt;font style=&quot;font-size: 18px;&quot; face=&quot;Lucida Console&quot;&gt;Start&lt;/font&gt;" style="rounded=1;whiteSpace=wrap;html=1;strokeWidth=2;" parent="1" vertex="1">
                    <mxGeometry x="28" y="130" width="100" height="40" as="geometry"/>
                </mxCell>
                <mxCell id="14" style="edgeStyle=entityRelationEdgeStyle;html=1;fontFamily=Lucida Console;fontSize=18;fillColor=#008a00;strokeColor=#4D9900;exitX=1;exitY=0.5;exitDx=0;exitDy=0;strokeWidth=2;" parent="1" source="3" target="4" edge="1">
                    <mxGeometry relative="1" as="geometry">
                        <mxPoint x="279" y="160" as="sourcePoint"/>
                    </mxGeometry>
                </mxCell>
                <mxCell id="3" value="&lt;font style=&quot;font-size: 18px;&quot; face=&quot;Lucida Console&quot;&gt;Spawn&lt;/font&gt;" style="rounded=1;whiteSpace=wrap;html=1;strokeColor=#4D9900;strokeWidth=2;" parent="1" vertex="1">
                    <mxGeometry x="178" y="130" width="100" height="40" as="geometry"/>
                </mxCell>
                <mxCell id="16" style="edgeStyle=entityRelationEdgeStyle;html=1;exitX=1;exitY=0.5;exitDx=0;exitDy=0;entryX=0;entryY=0.5;entryDx=0;entryDy=0;fontFamily=Lucida Console;fontSize=18;fillColor=#0050ef;strokeColor=#004C99;strokeWidth=2;" parent="1" source="4" target="5" edge="1">
                    <mxGeometry relative="1" as="geometry"/>
                </mxCell>
                <mxCell id="17" style="edgeStyle=elbowEdgeStyle;html=1;exitX=1;exitY=0.25;exitDx=0;exitDy=0;entryX=0;entryY=0.25;entryDx=0;entryDy=0;fontFamily=Lucida Console;fontSize=18;fillColor=#0050ef;strokeColor=#004C99;strokeWidth=2;" parent="1" source="4" target="8" edge="1">
                    <mxGeometry relative="1" as="geometry">
                        <Array as="points">
                            <mxPoint x="498" y="160"/>
                            <mxPoint x="478" y="180"/>
                            <mxPoint x="468" y="170"/>
                            <mxPoint x="438" y="210"/>
                        </Array>
                    </mxGeometry>
                </mxCell>
                <mxCell id="27" style="edgeStyle=elbowEdgeStyle;html=1;exitX=1;exitY=0.75;exitDx=0;exitDy=0;entryX=1;entryY=0.5;entryDx=0;entryDy=0;fontFamily=Lucida Console;fontSize=18;strokeColor=#004C99;strokeWidth=2;" parent="1" source="4" target="9" edge="1">
                    <mxGeometry relative="1" as="geometry">
                        <Array as="points">
                            <mxPoint x="478" y="230"/>
                            <mxPoint x="458" y="220"/>
                            <mxPoint x="448" y="270"/>
                            <mxPoint x="468" y="290"/>
                        </Array>
                    </mxGeometry>
                </mxCell>
                <mxCell id="4" value="&lt;font style=&quot;font-size: 18px;&quot; face=&quot;Lucida Console&quot;&gt;Moving&lt;/font&gt;" style="rounded=1;whiteSpace=wrap;html=1;strokeColor=#004C99;strokeWidth=2;" parent="1" vertex="1">
                    <mxGeometry x="342" y="130" width="100" height="40" as="geometry"/>
                </mxCell>
                <mxCell id="19" style="edgeStyle=none;html=1;exitX=1;exitY=0.5;exitDx=0;exitDy=0;entryX=0;entryY=0.5;entryDx=0;entryDy=0;fontFamily=Lucida Console;fontSize=18;strokeWidth=2;strokeColor=#CCCC00;" parent="1" source="5" target="6" edge="1">
                    <mxGeometry relative="1" as="geometry"/>
                </mxCell>
                <mxCell id="28" style="edgeStyle=orthogonalEdgeStyle;html=1;exitX=1;exitY=0.25;exitDx=0;exitDy=0;fontFamily=Lucida Console;fontSize=18;elbow=vertical;strokeWidth=2;strokeColor=#CCCC00;" parent="1" source="5" edge="1">
                    <mxGeometry relative="1" as="geometry">
                        <mxPoint x="342" y="140" as="targetPoint"/>
                        <Array as="points">
                            <mxPoint x="649" y="140"/>
                            <mxPoint x="649" y="110"/>
                            <mxPoint x="319" y="110"/>
                            <mxPoint x="319" y="140"/>
                        </Array>
                    </mxGeometry>
                </mxCell>
                <mxCell id="5" value="&lt;font style=&quot;font-size: 18px;&quot; face=&quot;Lucida Console&quot;&gt;Shifting&lt;/font&gt;" style="rounded=1;whiteSpace=wrap;html=1;strokeWidth=2;strokeColor=#CCCC00;" parent="1" vertex="1">
                    <mxGeometry x="529" y="130" width="110" height="40" as="geometry"/>
                </mxCell>
                <mxCell id="26" style="edgeStyle=orthogonalEdgeStyle;html=1;exitX=1;exitY=0.5;exitDx=0;exitDy=0;entryX=0;entryY=0.75;entryDx=0;entryDy=0;fontFamily=Lucida Console;fontSize=18;elbow=vertical;strokeWidth=2;strokeColor=#6600CC;" parent="1" source="6" target="3" edge="1">
                    <mxGeometry relative="1" as="geometry">
                        <Array as="points">
                            <mxPoint x="799" y="150"/>
                            <mxPoint x="799" y="360"/>
                            <mxPoint x="158" y="360"/>
                            <mxPoint x="158" y="160"/>
                        </Array>
                    </mxGeometry>
                </mxCell>
                <mxCell id="6" value="&lt;font style=&quot;font-size: 18px;&quot; face=&quot;Lucida Console&quot;&gt;Attaching&lt;/font&gt;" style="rounded=1;whiteSpace=wrap;html=1;strokeColor=#6600CC;strokeWidth=2;" parent="1" vertex="1">
                    <mxGeometry x="679" y="130" width="110" height="40" as="geometry"/>
                </mxCell>
                <mxCell id="22" style="edgeStyle=elbowEdgeStyle;html=1;exitX=1;exitY=0.5;exitDx=0;exitDy=0;fontFamily=Lucida Console;fontSize=18;elbow=vertical;entryX=0;entryY=0.25;entryDx=0;entryDy=0;strokeColor=#CC0066;strokeWidth=2;" parent="1" source="7" target="3" edge="1">
                    <mxGeometry relative="1" as="geometry">
                        <mxPoint x="178" y="150" as="targetPoint"/>
                        <Array as="points">
                            <mxPoint x="158" y="110"/>
                        </Array>
                    </mxGeometry>
                </mxCell>
                <mxCell id="23" style="edgeStyle=orthogonalEdgeStyle;html=1;exitX=1;exitY=0.5;exitDx=0;exitDy=0;fontFamily=Lucida Console;fontSize=18;entryX=1;entryY=0.25;entryDx=0;entryDy=0;strokeColor=#CC0066;strokeWidth=2;" parent="1" source="7" target="9" edge="1">
                    <mxGeometry relative="1" as="geometry">
                        <Array as="points">
                            <mxPoint x="458" y="60"/>
                            <mxPoint x="458" y="310"/>
                        </Array>
                    </mxGeometry>
                </mxCell>
                <mxCell id="7" value="&lt;font style=&quot;font-size: 18px;&quot; face=&quot;Lucida Console&quot;&gt;Game Over&lt;/font&gt;" style="rounded=1;whiteSpace=wrap;html=1;strokeColor=#CC0066;strokeWidth=2;" parent="1" vertex="1">
                    <mxGeometry x="312" y="40" width="110" height="40" as="geometry"/>
                </mxCell>
                <mxCell id="24" style="edgeStyle=elbowEdgeStyle;html=1;fontFamily=Lucida Console;fontSize=18;entryX=0;entryY=0.75;entryDx=0;entryDy=0;elbow=vertical;exitX=1;exitY=0.5;exitDx=0;exitDy=0;strokeColor=#009999;strokeWidth=2;" parent="1" source="8" target="4" edge="1">
                    <mxGeometry relative="1" as="geometry">
                        <mxPoint x="318" y="150" as="targetPoint"/>
                        <mxPoint x="648" y="260" as="sourcePoint"/>
                        <Array as="points">
                            <mxPoint x="319" y="190"/>
                            <mxPoint x="329" y="210"/>
                            <mxPoint x="329" y="180"/>
                        </Array>
                    </mxGeometry>
                </mxCell>
                <mxCell id="31" style="edgeStyle=elbowEdgeStyle;html=1;exitX=1;exitY=0.5;exitDx=0;exitDy=0;entryX=1;entryY=0.75;entryDx=0;entryDy=0;fontFamily=Lucida Console;fontSize=18;strokeColor=#009999;strokeWidth=2;" parent="1" source="8" target="9" edge="1">
                    <mxGeometry relative="1" as="geometry">
                        <Array as="points">
                            <mxPoint x="659" y="370"/>
                            <mxPoint x="669" y="340"/>
                        </Array>
                    </mxGeometry>
                </mxCell>
                <mxCell id="8" value="&lt;font style=&quot;font-size: 18px;&quot; face=&quot;Lucida Console&quot;&gt;Pause&lt;/font&gt;" style="rounded=1;whiteSpace=wrap;html=1;strokeColor=#009999;strokeWidth=2;" parent="1" vertex="1">
                    <mxGeometry x="539" y="240" width="110" height="40" as="geometry"/>
                </mxCell>
                <mxCell id="9" value="&lt;font style=&quot;font-size: 18px;&quot; face=&quot;Lucida Console&quot;&gt;Exit state&lt;/font&gt;" style="rounded=1;whiteSpace=wrap;html=1;strokeWidth=2;strokeColor=#CC6600;" parent="1" vertex="1">
                    <mxGeometry x="322" y="300" width="120" height="40" as="geometry"/>
                </mxCell>
                <mxCell id="15" style="edgeStyle=orthogonalEdgeStyle;html=1;exitX=1;exitY=0.25;exitDx=0;exitDy=0;entryX=0;entryY=0.75;entryDx=0;entryDy=0;fontFamily=Lucida Console;fontSize=18;fillColor=#60a917;strokeColor=#4D9900;strokeWidth=2;" parent="1" source="3" target="7" edge="1">
                    <mxGeometry relative="1" as="geometry">
                        <Array as="points">
                            <mxPoint x="288" y="140"/>
                            <mxPoint x="288" y="70"/>
                        </Array>
                    </mxGeometry>
                </mxCell>
                <mxCell id="12" value="" style="edgeStyle=none;html=1;fontFamily=Lucida Console;fontSize=18;strokeWidth=2;" parent="1" source="2" target="3" edge="1">
                    <mxGeometry relative="1" as="geometry">
                        <Array as="points">
                            <mxPoint x="149" y="150"/>
                        </Array>
                    </mxGeometry>
                </mxCell>
            </root>
        </mxGraphModel>
    </diagram>
</mxfile>